<svg xmlns="http://www.w3.org/2000/svg" width="1200" height="320" viewBox="0 0 1200 320" role="img" aria-label="JobSim AI">
  <defs>
    <linearGradient id="bg" x1="0%" y1="0%" x2="100%" y2="100%">
      <stop offset="0%" stop-color="#1F4E4A"/>
      <stop offset="55%" stop-color="#163836"/>
      <stop offset="100%" stop-color="#0A1628"/>
    </linearGradient>
    <linearGradient id="accent" x1="0%" y1="0%" x2="100%" y2="0%">
      <stop offset="0%" stop-color="#F47E47"/>
      <stop offset="100%" stop-color="#E8B84A"/>
    </linearGradient>
  </defs>
  <rect width="1200" height="320" fill="url(#bg)" rx="24"/>
  <circle cx="980" cy="80" r="120" fill="#F47E47" opacity="0.12"/>
  <circle cx="1050" cy="220" r="90" fill="#E8B84A" opacity="0.1"/>
  <rect x="64" y="64" width="72" height="72" rx="18" fill="url(#accent)"/>
  <text x="108" y="112" font-family="Arial, sans-serif" font-size="34" font-weight="700" fill="#1F4E4A" text-anchor="middle">JS</text>
  <text x="160" y="98" font-family="Arial, sans-serif" font-size="44" font-weight="700" fill="#FAF5EC">JobSim AI</text>
  <text x="160" y="138" font-family="Arial, sans-serif" font-size="20" fill="#C8DDD8">AI-powered job simulation &amp; skill-based hiring</text>
  <g font-family="Arial, sans-serif" font-size="15" fill="#FAF5EC">
    <rect x="160" y="168" width="118" height="34" rx="17" fill="#F47E47" opacity="0.95"/>
    <text x="219" y="190" text-anchor="middle" font-weight="600">Student</text>
    <rect x="290" y="168" width="88" height="34" rx="17" fill="#FFFFFF" opacity="0.14"/>
    <text x="334" y="190" text-anchor="middle">HR</text>
    <rect x="390" y="168" width="130" height="34" rx="17" fill="#FFFFFF" opacity="0.14"/>
    <text x="455" y="190" text-anchor="middle">Courses</text>
    <rect x="532" y="168" width="150" height="34" rx="17" fill="#FFFFFF" opacity="0.14"/>
    <text x="607" y="190" text-anchor="middle">AI Analysis</text>
    <rect x="694" y="168" width="130" height="34" rx="17" fill="#FFFFFF" opacity="0.14"/>
    <text x="759" y="190" text-anchor="middle">Certificate</text>
  </g>
  <text x="64" y="280" font-family="Arial, sans-serif" font-size="14" fill="#8FB5AE">Next.js 16 · Supabase · OpenRouter · Tailwind 3.4</text>
</svg>
